P3
33 33
255
153 217 234 153 217 234 153 217 234 153 217 234 153 217 234 153 217 234 153 217 234 153 217 234 153 217 234 153 217 234 153 217 234 153 217 234 153 217 234 153 217 234 153 217 234 153 217 234 153 217 234 255 242 0 255 242 0 255 242 0 255 242 0 255 242 0 255 242 0 255 242 0 255 242 0 255 242 0 255 242 0 255 242 0 255 242 0 255 242 0 255 242 0 255 242 0 255 242 0 
153 217 234 153 217 234 153 217 234 153 217 234 153 217 234 153 217 234 153 217 234 153 217 234 153 217 234 153 217 234 153 217 234 153 217 234 153 217 234 153 217 234 153 217 234 153 217 234 153 217 234 153 217 234 153 217 234 153 217 234 153 217 234 153 217 234 153 217 234 255 242 0 255 242 0 255 242 0 255 242 0 255 242 0 255 242 0 255 242 0 255 242 0 255 242 0 255 242 0 
153 217 234 153 217 234 153 217 234 153 217 234 153 217 234 153 217 234 153 217 234 153 217 234 153 217 234 153 217 234 153 217 234 153 217 234 153 217 234 153 217 234 153 217 234 153 217 234 105 149 161 124 176 190 153 217 234 153 217 234 153 217 234 255 242 0 255 242 0 255 242 0 255 242 0 255 242 0 255 242 0 255 242 0 255 242 0 255 242 0 255 242 0 255 242 0 255 242 0 
153 217 234 153 217 234 153 217 234 153 217 234 153 217 234 153 217 234 153 217 234 153 217 234 153 217 234 153 217 234 153 217 234 153 217 234 153 217 234 153 217 234 153 217 234 95 136 146 58 82 88 153 217 234 153 217 234 255 242 0 255 242 0 255 242 0 153 217 234 255 242 0 255 242 0 255 242 0 255 242 0 255 242 0 255 242 0 255 242 0 255 242 0 255 242 0 255 242 0 
153 217 234 153 217 234 153 217 234 153 217 234 153 217 234 153 217 234 105 149 161 124 176 190 153 217 234 153 217 234 153 217 234 153 217 234 153 217 234 153 218 234 95 135 146 58 82 88 153 217 234 154 217 234 255 242 0 255 242 0 153 217 234 153 217 234 153 217 234 255 242 0 255 242 0 255 242 0 255 242 0 255 242 0 255 242 0 255 242 0 255 242 0 255 242 0 255 242 0 
153 217 234 153 217 234 153 217 234 153 217 234 153 217 234 95 135 146 58 82 88 153 217 234 153 217 234 153 217 234 153 217 234 153 217 234 153 217 234 95 135 146 58 82 88 153 217 234 153 217 234 255 242 0 255 242 0 153 217 234 153 217 234 153 217 234 153 217 234 252 241 7 255 242 0 255 242 0 255 242 0 255 242 0 255 242 0 255 242 0 255 242 0 255 242 0 255 242 0 
153 217 234 153 217 234 153 217 234 153 217 234 95 135 146 58 82 88 153 217 234 153 217 234 153 217 234 153 217 234 153 217 234 153 217 234 95 135 146 58 82 88 153 217 234 153 217 234 153 217 234 153 217 234 153 217 234 153 217 234 153 217 234 153 217 234 153 217 234 255 242 0 255 242 0 255 242 0 255 242 0 255 242 0 255 242 0 255 242 0 255 242 0 255 242 0 255 242 0 
153 217 234 153 217 234 153 217 234 95 135 146 58 82 88 153 217 234 153 217 234 153 217 234 153 217 234 153 217 234 153 217 234 143 203 219 86 122 131 153 217 234 153 217 234 153 217 234 153 217 234 153 217 234 153 217 234 153 217 234 153 217 234 153 217 234 255 242 0 255 242 0 201 228 124 255 242 0 255 242 0 255 242 0 255 242 0 255 242 0 255 242 0 255 242 0 255 242 0 
153 217 234 153 217 234 95 135 146 58 82 88 153 217 234 153 217 234 153 217 234 153 217 234 153 217 234 153 217 234 153 217 234 153 217 234 153 217 234 153 217 234 153 217 234 153 217 234 153 217 234 153 217 234 153 217 234 105 149 161 124 176 190 153 217 234 255 242 0 153 217 234 153 217 234 153 217 234 255 242 0 255 242 0 153 218 234 201 228 124 255 242 0 255 242 0 255 242 0 
153 217 234 143 203 219 86 122 131 153 217 234 153 217 234 153 217 234 153 217 234 153 217 234 153 217 234 153 217 234 153 217 234 153 217 234 153 217 234 153 217 234 153 217 234 153 217 234 153 217 234 153 217 234 95 136 146 58 82 88 153 217 234 255 242 0 255 242 0 153 217 234 153 217 234 153 217 234 255 242 0 153 217 234 153 217 234 153 217 234 153 217 234 255 242 0 153 217 234 
153 217 234 153 217 234 153 217 234 153 217 234 153 217 234 153 217 234 153 217 234 153 217 234 153 217 234 153 217 234 153 217 234 153 217 234 153 217 234 153 217 234 153 218 234 153 217 234 153 217 234 95 135 146 58 82 88 153 217 234 153 217 234 153 217 234 153 217 234 153 217 234 153 217 234 255 242 0 255 242 0 153 217 234 153 217 234 153 217 234 255 242 0 255 242 0 153 217 234 
153 217 234 153 217 234 153 217 234 153 217 234 153 217 234 153 217 234 153 217 234 153 217 234 153 217 234 153 217 234 153 217 234 153 217 234 153 217 234 153 217 234 153 217 234 153 217 234 95 135 146 58 82 88 153 217 234 153 217 234 153 217 234 153 217 234 153 217 234 153 217 234 153 217 234 255 242 0 153 217 234 153 217 234 153 217 234 153 217 234 255 242 0 153 217 234 153 217 234 
153 217 234 153 217 234 153 217 234 153 217 234 153 217 234 153 217 234 105 149 161 124 176 190 153 217 234 153 217 234 153 217 234 153 217 234 153 217 234 153 217 234 153 217 234 95 135 146 58 82 88 153 217 234 153 217 234 153 217 234 153 217 234 153 217 234 153 217 234 153 217 234 153 217 234 153 217 234 153 217 234 153 217 234 153 217 234 153 217 234 153 217 234 153 217 235 153 217 234 
153 217 234 153 217 234 153 217 234 153 217 234 153 217 234 95 135 146 58 82 88 153 217 234 153 217 234 153 217 234 153 217 234 153 217 234 153 217 234 153 217 234 143 203 219 86 122 131 153 217 234 153 217 234 153 217 234 153 217 234 153 217 234 153 217 234 153 217 234 153 217 234 153 217 234 153 217 234 153 217 234 153 217 234 153 217 234 193 228 212 241 231 158 239 228 176 239 228 176 
153 217 234 153 217 234 153 217 234 153 217 234 95 135 146 58 82 88 153 217 234 153 217 234 153 217 234 153 217 234 153 217 234 153 217 234 153 217 234 153 217 234 153 217 234 153 217 234 153 217 234 153 217 234 153 217 234 153 217 234 153 217 234 153 217 234 153 217 234 153 217 234 153 217 234 153 217 234 153 217 234 153 217 234 153 217 234 185 221 213 235 228 179 239 229 176 239 228 176 
166 222 237 153 217 234 153 217 234 95 135 146 58 82 88 153 217 234 153 217 234 153 217 234 153 217 234 153 217 234 153 217 234 153 217 234 153 217 234 153 217 234 153 217 234 153 217 234 153 217 234 153 217 234 153 217 234 153 217 234 153 217 234 153 217 234 153 217 234 177 220 218 228 227 183 239 228 176 239 228 176 239 228 176 239 228 176 239 228 176 239 228 176 239 228 176 239 228 176 
153 217 234 153 217 234 95 135 146 58 82 88 153 217 234 153 217 234 153 217 234 153 217 234 153 217 234 153 217 234 153 217 234 153 217 234 153 217 234 153 217 234 153 217 234 153 217 234 153 217 234 153 217 234 177 220 218 228 227 183 239 228 176 239 228 176 239 228 176 239 228 176 239 228 176 239 228 176 239 228 176 239 228 176 239 228 176 239 228 176 239 228 176 239 228 176 239 228 176 
153 217 234 143 203 219 86 122 131 153 217 234 153 217 234 153 217 234 153 217 234 177 220 218 228 227 183 239 228 176 239 228 176 228 227 183 199 223 204 228 227 183 239 228 176 239 228 176 239 228 176 239 228 176 239 228 176 239 228 176 239 228 176 239 228 176 239 228 176 239 228 176 239 228 176 239 228 176 239 228 176 239 228 176 239 228 176 239 228 176 239 228 176 239 228 176 239 228 176 
153 217 234 153 217 234 177 220 218 228 227 183 239 228 176 239 228 176 239 228 176 239 228 176 239 228 176 239 228 176 239 228 176 239 228 176 239 228 176 239 228 176 239 228 176 232 224 183 235 226 180 239 228 176 239 228 176 239 228 176 239 228 176 239 228 176 239 228 176 239 228 176 239 228 176 239 228 176 239 228 176 239 228 176 239 228 176 239 228 176 239 228 177 239 228 176 239 228 176 
156 218 235 177 220 218 234 228 180 239 228 176 239 228 176 239 228 176 239 228 176 239 228 176 239 228 176 239 228 176 239 228 176 239 228 176 239 228 176 239 228 176 230 223 184 226 222 190 239 228 176 239 228 176 239 228 176 239 228 176 239 228 176 239 228 176 232 224 183 235 226 180 239 228 176 239 228 177 239 228 176 239 228 176 239 228 176 239 228 176 239 228 176 239 228 176 239 228 176 
234 228 180 239 228 176 239 228 176 239 228 176 239 228 176 239 228 176 239 228 176 239 228 176 239 228 176 239 228 176 239 228 176 239 228 176 239 228 176 230 223 184 226 222 190 239 228 176 239 228 176 239 228 176 239 228 176 239 228 177 239 228 176 230 223 184 226 222 190 239 228 176 239 228 176 239 228 176 239 228 176 239 228 176 239 228 177 239 228 176 239 228 176 239 228 176 239 228 176 
239 228 176 239 228 176 239 228 176 239 228 176 239 228 177 239 228 176 239 228 176 239 228 176 239 228 176 239 228 176 239 228 176 239 228 177 230 223 184 226 222 190 239 228 176 239 228 176 239 228 176 239 228 176 239 228 177 239 228 176 230 223 184 226 222 190 239 228 176 239 228 176 239 228 176 239 228 177 239 228 176 239 228 176 239 228 176 239 228 176 239 228 177 239 228 176 239 228 176 
239 228 176 239 228 176 239 228 176 239 228 177 239 228 176 239 228 176 239 228 176 239 228 176 239 228 176 239 228 177 239 228 176 230 223 184 226 222 191 239 228 176 239 228 176 239 228 176 239 228 176 239 228 177 239 228 176 230 223 184 226 222 190 239 228 176 239 228 176 239 228 176 239 228 176 239 228 177 239 228 176 239 228 176 239 228 176 239 228 176 239 228 176 239 228 176 239 228 176 
239 228 176 239 228 176 239 228 176 239 228 176 239 228 176 239 228 176 239 228 176 239 228 176 239 228 177 239 228 176 238 228 177 229 223 186 239 228 176 239 228 176 239 228 176 239 228 176 239 228 177 239 228 176 230 223 184 226 222 190 239 228 176 239 228 176 239 228 176 239 228 176 239 228 177 239 228 176 239 228 176 239 228 176 239 228 176 239 228 176 239 228 176 239 228 176 239 228 176 
239 228 176 239 228 176 239 228 176 239 228 176 239 228 176 239 228 176 239 228 176 239 228 177 239 228 176 239 228 176 239 228 176 239 228 176 239 228 176 239 228 176 239 228 176 239 228 176 239 228 176 238 228 177 229 223 186 239 228 176 239 228 176 239 228 176 239 228 176 239 228 176 239 228 176 239 228 176 239 228 176 239 228 176 227 222 188 225 221 190 235 226 180 239 228 176 239 228 176 
239 228 176 239 228 176 239 228 176 239 228 176 239 228 176 239 228 176 239 228 177 232 224 183 235 226 180 239 228 176 239 228 176 239 228 176 239 228 176 239 228 176 239 228 176 239 228 176 239 228 176 239 228 176 239 228 176 239 228 176 239 228 176 239 228 176 239 228 176 239 228 176 239 228 176 239 228 176 239 228 176 224 220 189 217 217 198 222 220 194 239 228 176 239 228 176 239 228 176 
239 228 176 239 228 176 239 228 176 239 228 176 239 228 176 239 228 176 230 223 184 226 222 190 239 228 176 239 228 176 239 228 176 239 228 176 239 228 176 239 228 176 239 228 176 239 228 176 239 228 176 239 228 176 239 228 176 239 228 176 239 228 176 239 228 176 239 228 176 239 228 176 239 228 176 239 228 176 224 220 189 217 217 198 221 220 196 239 228 176 239 228 176 239 228 176 239 228 176 
239 228 176 239 228 176 239 228 176 239 228 176 239 228 176 230 223 184 226 222 190 239 228 176 239 228 176 239 228 176 239 228 176 239 228 176 239 228 176 239 228 176 239 228 176 239 228 176 232 224 183 235 226 180 239 228 176 239 228 176 239 228 176 239 228 176 239 228 176 239 228 176 239 228 176 224 220 189 217 217 198 221 220 196 239 228 176 239 228 176 239 228 176 239 228 176 239 228 176 
239 228 176 239 228 176 239 228 176 239 228 176 230 223 184 226 222 190 239 228 176 239 228 176 239 228 176 239 228 176 239 228 176 239 228 176 239 228 176 239 228 176 239 228 176 230 223 184 226 222 190 239 228 176 239 228 176 239 228 176 239 228 176 239 228 176 239 228 176 239 228 176 224 220 189 217 217 198 221 220 196 239 228 176 239 228 176 239 228 176 239 228 176 239 228 176 239 228 176 
239 228 176 239 228 176 239 228 176 230 223 184 226 222 190 239 228 176 239 228 176 239 228 176 239 228 176 239 228 176 239 228 176 239 228 176 239 228 176 239 228 176 230 223 184 226 222 190 239 228 176 239 228 176 239 228 176 239 228 176 239 228 176 239 228 176 239 228 176 231 224 184 217 217 198 222 219 194 239 228 176 239 228 176 239 228 176 239 228 176 239 228 176 239 228 176 239 228 176 
239 228 176 239 228 176 238 228 177 229 223 186 239 228 176 239 228 176 239 228 176 239 228 176 239 228 176 239 228 176 239 228 176 239 228 176 239 228 176 230 223 184 226 222 190 239 228 176 239 228 176 239 228 176 239 228 176 239 228 176 239 228 176 239 228 176 239 228 176 233 225 182 229 223 186 239 228 176 239 228 176 239 228 176 239 228 176 239 228 176 239 228 176 239 228 176 239 228 176 
239 228 176 239 228 176 239 228 176 239 228 176 239 228 176 239 228 176 239 228 176 239 228 176 239 228 176 239 228 176 239 228 176 239 228 176 230 223 184 226 222 190 239 228 176 239 228 176 239 228 176 239 228 176 239 228 176 239 228 176 239 228 176 239 228 176 239 228 176 239 228 176 239 228 176 239 228 176 239 228 176 239 228 176 239 228 176 239 228 176 239 228 176 239 228 176 239 228 176 
239 228 176 239 228 176 239 228 176 239 228 176 239 228 176 239 228 176 239 228 176 239 228 176 239 228 176 239 228 176 239 228 176 238 228 177 229 223 186 239 228 176 239 228 176 239 228 176 239 228 176 239 228 176 239 228 176 239 228 176 239 228 176 239 228 176 239 228 176 239 228 176 239 228 176 239 228 176 239 228 176 239 228 176 239 228 176 239 228 176 239 228 176 239 228 176 239 228 176
